<?xml version="1.0" encoding="UTF-8" standalone="no"?>
<!DOCTYPE svg PUBLIC "-//W3C//DTD SVG 1.1//EN" "http://www.w3.org/Graphics/SVG/1.1/DTD/svg11.dtd">
<svg xmlns="http://www.w3.org/2000/svg" xmlns:xlink="http://www.w3.org/1999/xlink" version="1.1" width="1280" height="1024" viewBox="0 0 1280 1024" xml:space="preserve">
	<desc>
		Created with Fabric.js 5.3.0
	</desc>
	<defs>
	</defs>
	<g transform="matrix(1 0 0 1 640 512)" id="background-logo">
		<rect style="stroke: none; stroke-width: 0; stroke-dasharray: none; stroke-linecap: butt; stroke-dashoffset: 0; stroke-linejoin: miter; stroke-miterlimit: 4; fill: rgb(255,255,255); fill-opacity: 0; fill-rule: nonzero; opacity: 1;" paint-order="stroke" x="-640" y="-512" rx="0" ry="0" width="1280" height="1024" />
	</g>
	<g transform="matrix(1.9211538461538462 0 0 1.9211538461538462 640 412.9594587595491)" id="logo-logo">
		<g style="" paint-order="stroke">
			<g transform="matrix(-0.018483613619047577 -0.03201455789566244 0.6131237248435348 -0.3539871475849608 4.0046709256110375 50.5131918686281)">
				<g style="" paint-order="stroke">
					<g transform="matrix(1 0 0 1 0 0)">
						<linearGradient id="SVGID_2_524282" gradientUnits="userSpaceOnUse" gradientTransform="matrix(1 0 0 1 -100 -100)" x1="0" y1="0" x2="0" y2="200">
							<stop offset="0%" style="stop-color:rgb(23,234,217);stop-opacity: 1" />
							<stop offset="100%" style="stop-color:rgb(96,120,234);stop-opacity: 1" />
						</linearGradient>
						<rect style="stroke: none; stroke-width: 0; stroke-dasharray: none; stroke-linecap: butt; stroke-dashoffset: 0; stroke-linejoin: miter; stroke-miterlimit: 4; fill: url(#SVGID_2_524282); fill-rule: nonzero; opacity: 1;" paint-order="stroke" x="-100" y="-100" rx="0" ry="0" width="200" height="200" />
					</g>
				</g>
			</g>
			<g transform="matrix(0 0.5693683618728431 -0.5693683618728431 0 -0.36827946087777264 -2.542055579589544)">
				<g style="" paint-order="stroke">
					<g transform="matrix(1 0 0 1 0 0)">
						<linearGradient id="SVGID_3_524289" gradientUnits="userSpaceOnUse" gradientTransform="matrix(1 0 0 1 763.7446954256286 987.9984150000001)" x1="0" y1="0" x2="0" y2="219">
							<stop offset="0%" style="stop-color:rgb(23,234,217);stop-opacity: 1" />
							<stop offset="100%" style="stop-color:rgb(96,120,234);stop-opacity: 1" />
						</linearGradient>
						<path style="stroke: none; stroke-width: 1; stroke-dasharray: none; stroke-linecap: butt; stroke-dashoffset: 0; stroke-linejoin: miter; stroke-miterlimit: 4; fill: url(#SVGID_3_524289); fill-rule: nonzero; opacity: 1;" paint-order="stroke" transform=" translate(-888.7446939868119, -1097.5957075000001)" d="M 765.11707 1191.99731 L 869.3985 1011.37652 L 881.0072 1031.48339 L 779.56116 1207.19298 L 773.89032 1207.19298 C 766.09186 1207.19299 761.21777 1198.75098 765.11707 1191.99731 z M 971.01404 1160.57629 L 994.23139 1160.57629 L 897.51795 993.06366 C 893.61872 986.3100000000001 883.87067 986.3100000000001 879.97144 993.06366 L 877.13599 997.9746700000001 L 971.01404 1160.57629 z M 1001.96887 1173.97803 L 814.21289 1173.97803 L 795.03619 1207.193 L 1003.59906 1207.193 C 1011.3975800000001 1207.193 1016.27161 1198.75098 1012.37231 1191.99732 L 1001.96887 1173.97803 z" stroke-linecap="round" />
					</g>
				</g>
			</g>
			<g transform="matrix(0.3044241683750278 0 0 0.3044241683750278 -5.9169093611781705 -2.542055579589544)">
				<g style="" paint-order="stroke">
					<g transform="matrix(1 0 0 1 0 0)">
						<linearGradient id="SVGID_2_524283" gradientUnits="userSpaceOnUse" gradientTransform="matrix(1 0 0 1 -86 -100)" x1="0" y1="0" x2="0" y2="200">
							<stop offset="0%" style="stop-color:rgb(23,234,217);stop-opacity: 1" />
							<stop offset="100%" style="stop-color:rgb(96,120,234);stop-opacity: 1" />
						</linearGradient>
						<polygon style="stroke: none; stroke-width: 1; stroke-dasharray: none; stroke-linecap: butt; stroke-dashoffset: 0; stroke-linejoin: miter; stroke-miterlimit: 4; fill: url(#SVGID_2_524283); fill-rule: nonzero; opacity: 1;" paint-order="stroke" points="86,0 -86,-100 -86,100 86,0 " />
					</g>
				</g>
			</g>
			<g transform="matrix(0.11896307361256128 0 0 0.11896307361256128 -62.769517474406086 89.11336241669062)">
				<g style="" paint-order="stroke">
					<g transform="matrix(1 0 0 1 0 0)">
						<linearGradient id="SVGID_2_524284" gradientUnits="userSpaceOnUse" gradientTransform="matrix(1 0 0 1 0 0)" x1="0" y1="0" x2="0" y2="200">
							<stop offset="0%" style="stop-color:rgb(23,234,217);stop-opacity: 1" />
							<stop offset="100%" style="stop-color:rgb(96,120,234);stop-opacity: 1" />
						</linearGradient>
						<path style="stroke: none; stroke-width: 1; stroke-dasharray: none; stroke-linecap: butt; stroke-dashoffset: 0; stroke-linejoin: miter; stroke-miterlimit: 4; fill: url(#SVGID_2_524284); fill-rule: nonzero; opacity: 1;" paint-order="stroke" transform=" translate(-100, -100)" d="M 200 100 C 200 155.22847498307934 155.22847498307934 200 100 200 C 44.771525016920656 200 0 155.22847498307934 0 100 C 0 44.771525016920656 44.771525016920656 0 100 0 C 155.22847498307934 0 200 44.77152501692063 200 99.99999999999997 Z" stroke-linecap="round" />
					</g>
				</g>
			</g>
			<g transform="matrix(0.054016218385323785 0 0 0.054016218385323785 -62.769517474406086 89.11336241669062)">
				<g style="" paint-order="stroke">
					<g transform="matrix(1 0 0 1 0 0)">
						<path style="stroke: none; stroke-width: 1; stroke-dasharray: none; stroke-linecap: butt; stroke-dashoffset: 0; stroke-linejoin: miter; stroke-miterlimit: 4; fill: rgb(255,255,255); fill-rule: nonzero; opacity: 1;" paint-order="stroke" transform=" translate(-100, -100)" d="M 200 100 C 200 155.22847498307934 155.22847498307934 200 100 200 C 44.771525016920656 200 0 155.22847498307934 0 100 C 0 44.771525016920656 44.771525016920656 0 100 0 C 155.22847498307934 0 200 44.77152501692063 200 99.99999999999997 Z" stroke-linecap="round" />
					</g>
				</g>
			</g>
			<g transform="matrix(0.036967227238095146 -1.744e-17 1.3952e-16 0.7079742951699226 -78.68088552684873 -7.630782965708818)">
				<g style="" paint-order="stroke">
					<g transform="matrix(1 0 0 1 0 0)">
						<linearGradient id="SVGID_2_524285" gradientUnits="userSpaceOnUse" gradientTransform="matrix(1 0 0 1 -100 -100)" x1="0" y1="0" x2="0" y2="200">
							<stop offset="0%" style="stop-color:rgb(23,234,217);stop-opacity: 1" />
							<stop offset="100%" style="stop-color:rgb(96,120,234);stop-opacity: 1" />
						</linearGradient>
						<rect style="stroke: none; stroke-width: 0; stroke-dasharray: none; stroke-linecap: butt; stroke-dashoffset: 0; stroke-linejoin: miter; stroke-miterlimit: 4; fill: url(#SVGID_2_524285); fill-rule: nonzero; opacity: 1;" paint-order="stroke" x="-100" y="-100" rx="0" ry="0" width="200" height="200" />
					</g>
				</g>
			</g>
			<g transform="matrix(-0.05948153680628067 0.10302504386075628 -0.10302504386075628 -0.05948153680628067 -78.72251961187413 -84.75901171124303)">
				<g style="" paint-order="stroke">
					<g transform="matrix(1 0 0 1 0 0)">
						<linearGradient id="SVGID_2_524286" gradientUnits="userSpaceOnUse" gradientTransform="matrix(1 0 0 1 0 0)" x1="0" y1="0" x2="0" y2="200">
							<stop offset="0%" style="stop-color:rgb(23,234,217);stop-opacity: 1" />
							<stop offset="100%" style="stop-color:rgb(96,120,234);stop-opacity: 1" />
						</linearGradient>
						<path style="stroke: none; stroke-width: 1; stroke-dasharray: none; stroke-linecap: butt; stroke-dashoffset: 0; stroke-linejoin: miter; stroke-miterlimit: 4; fill: url(#SVGID_2_524286); fill-rule: nonzero; opacity: 1;" paint-order="stroke" transform=" translate(-100, -100)" d="M 200 100 C 200 155.22847498307934 155.22847498307934 200 100 200 C 44.771525016920656 200 0 155.22847498307934 0 100 C 0 44.771525016920656 44.771525016920656 0 100 0 C 155.22847498307934 0 200 44.77152501692063 200 99.99999999999997 Z" stroke-linecap="round" />
					</g>
				</g>
			</g>
			<g transform="matrix(-0.027008109192661896 0.04677941733805843 -0.046779417338058384 -0.027008109192661847 -78.72251961187413 -84.75901171124303)">
				<g style="" paint-order="stroke">
					<g transform="matrix(1 0 0 1 0 0)">
						<path style="stroke: none; stroke-width: 1; stroke-dasharray: none; stroke-linecap: butt; stroke-dashoffset: 0; stroke-linejoin: miter; stroke-miterlimit: 4; fill: rgb(255,255,255); fill-rule: nonzero; opacity: 1;" paint-order="stroke" transform=" translate(-100, -100)" d="M 200 100 C 200 155.22847498307934 155.22847498307934 200 100 200 C 44.771525016920656 200 0 155.22847498307934 0 100 C 0 44.771525016920656 44.771525016920656 0 100 0 C 155.22847498307934 0 200 44.77152501692063 200 99.99999999999997 Z" stroke-linecap="round" />
					</g>
				</g>
			</g>
			<g transform="matrix(-0.01792206739886094 0.03233226546073829 -0.6192082707037379 -0.343232749185498 11.170947324977647 -51.40825556809975)">
				<g style="" paint-order="stroke">
					<g transform="matrix(1 0 0 1 0 0)">
						<linearGradient id="SVGID_2_524287" gradientUnits="userSpaceOnUse" gradientTransform="matrix(1 0 0 1 -100 -100)" x1="0" y1="0" x2="0" y2="200">
							<stop offset="0%" style="stop-color:rgb(23,234,217);stop-opacity: 1" />
							<stop offset="100%" style="stop-color:rgb(96,120,234);stop-opacity: 1" />
						</linearGradient>
						<rect style="stroke: none; stroke-width: 0; stroke-dasharray: none; stroke-linecap: butt; stroke-dashoffset: 0; stroke-linejoin: miter; stroke-miterlimit: 4; fill: url(#SVGID_2_524287); fill-rule: nonzero; opacity: 1;" paint-order="stroke" x="-100" y="-100" rx="0" ry="0" width="200" height="200" />
					</g>
				</g>
			</g>
			<g transform="matrix(-0.061270512418796705 -0.10197125669170576 0.10197125669170569 -0.061270512418796705 78.64900076752758 -14.052162270956671)">
				<g style="" paint-order="stroke">
					<g transform="matrix(1 0 0 1 0 0)">
						<linearGradient id="SVGID_2_524288" gradientUnits="userSpaceOnUse" gradientTransform="matrix(1 0 0 1 0 0)" x1="0" y1="0" x2="0" y2="200">
							<stop offset="0%" style="stop-color:rgb(23,234,217);stop-opacity: 1" />
							<stop offset="100%" style="stop-color:rgb(96,120,234);stop-opacity: 1" />
						</linearGradient>
						<path style="stroke: none; stroke-width: 1; stroke-dasharray: none; stroke-linecap: butt; stroke-dashoffset: 0; stroke-linejoin: miter; stroke-miterlimit: 4; fill: url(#SVGID_2_524288); fill-rule: nonzero; opacity: 1;" paint-order="stroke" transform=" translate(-100, -100)" d="M 200 100 C 200 155.22847498307934 155.22847498307934 200 100 200 C 44.771525016920656 200 0 155.22847498307934 0 100 C 0 44.771525016920656 44.771525016920656 0 100 0 C 155.22847498307934 0 200 44.77152501692063 200 99.99999999999997 Z" stroke-linecap="round" />
					</g>
				</g>
			</g>
			<g transform="matrix(-0.027820409131098272 -0.04630093610748376 0.04630093610748374 -0.02782040913109826 78.64900076752758 -14.052162270956671)">
				<g style="" paint-order="stroke">
					<g transform="matrix(1 0 0 1 0 0)">
						<path style="stroke: none; stroke-width: 1; stroke-dasharray: none; stroke-linecap: butt; stroke-dashoffset: 0; stroke-linejoin: miter; stroke-miterlimit: 4; fill: rgb(255,255,255); fill-rule: nonzero; opacity: 1;" paint-order="stroke" transform=" translate(-100, -100)" d="M 200 100 C 200 155.22847498307934 155.22847498307934 200 100 200 C 44.771525016920656 200 0 155.22847498307934 0 100 C 0 44.771525016920656 44.771525016920656 0 100 0 C 155.22847498307934 0 200 44.77152501692063 200 99.99999999999997 Z" stroke-linecap="round" />
					</g>
				</g>
			</g>
		</g>
	</g>
	<g transform="matrix(1.9211538461538462 0 0 1.9211538461538462 641.4048437499998 699.2926469117853)" id="text-logo">
		<g style="" paint-order="stroke">
			<g transform="matrix(1 0 0 1 0 0)" id="text-logo-path-0">
				<linearGradient id="SVGID_524290" gradientUnits="userSpaceOnUse" gradientTransform="matrix(1 0 0 1 1.5300000000000011 -32.17)" x1="-1.6087530899047238" y1="-7.386300000000006" x2="-1.6087530899047238" y2="43.613699999999994">
					<stop offset="0%" style="stop-color:rgb(23,234,217);stop-opacity: 1" />
					<stop offset="100%" style="stop-color:rgb(96,120,234);stop-opacity: 1" />
				</linearGradient>
				<path style="stroke: none; stroke-width: 0; stroke-dasharray: none; stroke-linecap: butt; stroke-dashoffset: 0; stroke-linejoin: miter; stroke-miterlimit: 4; fill: url(#SVGID_524290); fill-rule: nonzero; opacity: 1;" paint-order="stroke" transform=" translate(-108.54, 15.75)" d="M 34.29 -3.19 L 35.05 0 L 39.1 0 L 39.1 -16.2 L 17.68 -16.2 L 17.68 -10.8 L 29.25 -10.8 C 28.08 -8.28 25.47 -6.97 20.29 -6.97 C 12.24 -6.97 10.53 -9.81 10.53 -15.79 C 10.53 -21.6 12.06 -24.52 20.29 -24.52 C 26.14 -24.52 28.8 -22.81 29.7 -19.35 L 38.88 -19.35 C 37.75 -27.68 32.22 -32.17 20.29 -32.17 C 6.84 -32.17 1.53 -26.73 1.53 -15.79 C 1.53 -5.08 6.3 0.67 20.29 0.67 C 26.59 0.67 31.23 -0.63 34.29 -3.19 Z M 65.61 0.67 C 78.61 0.67 84.42 -4.81 84.42 -15.79 C 84.42 -26.41 79.16 -32.17 65.61 -32.17 C 52.16 -32.17 46.84 -26.73 46.84 -15.79 C 46.84 -5.08 51.61 0.67 65.61 0.67 Z M 55.84 -15.79 C 55.84 -21.6 57.38 -24.52 65.61 -24.52 C 73.17 -24.52 75.42 -21.69 75.42 -15.79 C 75.42 -9.9 73.48 -6.97 65.61 -6.97 C 57.55 -6.97 55.84 -9.81 55.84 -15.79 Z M 131.67 -31.5 L 122.22 -31.5 L 110.92 -6.75 L 109.21 -6.75 L 97.92 -31.5 L 88.47 -31.5 L 102.87 0 L 117.27 0 Z M 169.15 -31.5 L 138.51 -31.5 L 138.51 0 L 169.15 0 L 169.15 -7.65 L 147.51 -7.65 L 147.51 -12.6 L 167.35 -12.6 L 167.35 -19.35 L 147.51 -19.35 L 147.51 -23.85 L 169.15 -23.85 Z M 187.33 -15.75 L 175.5 0 L 185.4 0 L 194.67 -12.38 L 196.38 -12.38 L 205.65 0 L 215.55 0 L 203.76 -15.75 L 215.55 -31.5 L 205.65 -31.5 L 196.38 -19.13 L 194.67 -19.13 L 185.4 -31.5 L 175.5 -31.5 Z" stroke-linecap="round" />
			</g>
		</g>
	</g>
	<g transform="matrix(1.9211538461538462 0 0 1.9211538461538462 638.9433653846155 776.2370443330832)" id="tagline-a573cfcb-9ce1-437c-b10e-e5ee61872022-logo">
		<g style="" paint-order="stroke">
			<g transform="matrix(1 0 0 1 0 0)" id="tagline-a573cfcb-9ce1-437c-b10e-e5ee61872022-logo-path-0">
				<path style="stroke: none; stroke-width: 0; stroke-dasharray: none; stroke-linecap: butt; stroke-dashoffset: 0; stroke-linejoin: miter; stroke-miterlimit: 4; fill: rgb(90,127,232); fill-rule: nonzero; opacity: 1;" paint-order="stroke" transform=" translate(-203.4, 8.75)" d="M 24 -17.5 L 18.75 -17.5 L 12.48 -3.75 L 11.53 -3.75 L 5.25 -17.5 L 0 -17.5 L 8 0 L 16 0 Z M 45.68 0.38 C 52.33 0.38 55.93 -1.93 55.93 -7.55 L 55.93 -17.5 L 50.93 -17.5 L 50.93 -7.38 C 50.93 -4.6 48.68 -3.88 45.68 -3.88 C 42.8 -3.88 40.43 -4.53 40.43 -7.38 L 40.43 -17.5 L 35.43 -17.5 L 35.43 -7.55 C 35.43 -2.08 38.68 0.38 45.68 0.38 Z M 73.85 -17.5 L 68.85 -17.5 L 68.85 0 L 84.88 0 L 84.88 -4.25 L 73.85 -4.25 Z M 103.3 -17.5 L 96.8 -17.5 L 96.8 0 L 101.8 0 L 101.8 -12.28 L 111.8 0 L 116.8 0 L 116.8 -17.5 L 111.8 -17.5 L 111.8 -7.03 Z M 160.65 -5 L 164.15 0 L 169.9 0 L 165.98 -5.6 C 168.28 -6.48 169.5 -8.38 169.5 -11.28 C 169.5 -15.3 167.18 -17.5 162.3 -17.5 L 151.4 -17.5 L 151.4 0 L 156.4 0 L 156.4 -5 Z M 156.4 -9.25 L 156.4 -13.25 L 162.3 -13.25 C 164.13 -13.25 164.5 -12.63 164.5 -11.28 C 164.5 -9.9 164.2 -9.25 162.3 -9.25 Z M 199.25 -17.5 L 182.23 -17.5 L 182.23 0 L 199.25 0 L 199.25 -4.25 L 187.23 -4.25 L 187.23 -7 L 198.25 -7 L 198.25 -10.75 L 187.23 -10.75 L 187.23 -13.25 L 199.25 -13.25 Z M 222.93 -17.5 L 212.03 -17.5 L 212.03 0 L 217.03 0 L 217.03 -5 L 222.93 -5 C 227.55 -5 230.13 -7.08 230.13 -11.28 C 230.13 -15.3 227.8 -17.5 222.93 -17.5 Z M 217.03 -9.25 L 217.03 -13.25 L 222.93 -13.25 C 224.75 -13.25 225.13 -12.63 225.13 -11.28 C 225.13 -9.9 224.83 -9.25 222.93 -9.25 Z M 252.18 0.38 C 259.4 0.38 262.63 -2.68 262.63 -8.78 C 262.63 -14.68 259.7 -17.88 252.18 -17.88 C 244.7 -17.88 241.75 -14.85 241.75 -8.78 C 241.75 -2.83 244.4 0.38 252.18 0.38 Z M 246.75 -8.78 C 246.75 -12 247.6 -13.63 252.18 -13.63 C 256.38 -13.63 257.63 -12.05 257.63 -8.78 C 257.63 -5.5 256.55 -3.88 252.18 -3.88 C 247.7 -3.88 246.75 -5.45 246.75 -8.78 Z M 284.38 -5 L 287.88 0 L 293.63 0 L 289.7 -5.6 C 292 -6.48 293.23 -8.38 293.23 -11.28 C 293.23 -15.3 290.9 -17.5 286.03 -17.5 L 275.13 -17.5 L 275.13 0 L 280.13 0 L 280.13 -5 Z M 280.13 -9.25 L 280.13 -13.25 L 286.03 -13.25 C 287.85 -13.25 288.23 -12.63 288.23 -11.28 C 288.23 -9.9 287.93 -9.25 286.03 -9.25 Z M 323.38 -13.25 L 323.38 -17.5 L 304.73 -17.5 L 304.73 -13.25 L 311.55 -13.25 L 311.55 0 L 316.55 0 L 316.55 -13.25 Z M 340.3 -17.5 L 335.3 -17.5 L 335.3 0 L 340.3 0 Z M 359.93 -17.5 L 353.43 -17.5 L 353.43 0 L 358.43 0 L 358.43 -12.28 L 368.43 0 L 373.43 0 L 373.43 -17.5 L 368.43 -17.5 L 368.43 -7.03 Z M 404.13 -1.78 L 404.55 0 L 406.8 0 L 406.8 -9 L 394.9 -9 L 394.9 -6 L 401.33 -6 C 400.68 -4.6 399.23 -3.88 396.35 -3.88 C 391.88 -3.88 390.93 -5.45 390.93 -8.78 C 390.93 -12 391.78 -13.63 396.35 -13.63 C 399.6 -13.63 401.08 -12.68 401.58 -10.75 L 406.68 -10.75 C 406.05 -15.38 402.98 -17.88 396.35 -17.88 C 388.88 -17.88 385.93 -14.85 385.93 -8.78 C 385.93 -2.83 388.58 0.38 396.35 0.38 C 399.85 0.38 402.43 -0.35 404.13 -1.78 Z" stroke-linecap="round" />
			</g>
		</g>
	</g>
</svg>
